<svg height="3662" width="720" xmlns="http://www.w3.org/2000/svg">
<rect height="3662" fill="#555" width="720"></rect>
<text fill="#7f7" font-family="Courier New" font-size="12" xml:space="preserve">
<tspan x="10" y="26">└─┬ hotel@0.7.1 </tspan>
<tspan x="10" y="42">  ├── after-all@2.0.2 </tspan>
<tspan x="10" y="58">  ├── ansi2html@0.0.1 </tspan>
<tspan x="10" y="74">  ├─┬ chalk@1.1.3 </tspan>
<tspan x="10" y="90">  │ ├── ansi-styles@2.2.1 </tspan>
<tspan x="10" y="106">  │ ├── escape-string-regexp@1.0.5 </tspan>
<tspan x="10" y="122">  │ ├── has-ansi@2.0.0 </tspan>
<tspan x="10" y="138">  │ └── supports-color@2.0.0 </tspan>
<tspan x="10" y="154">  ├─┬ chokidar@1.6.1 </tspan>
<tspan x="10" y="170">  │ ├─┬ anymatch@1.3.0 </tspan>
<tspan x="10" y="186">  │ │ ├── arrify@1.0.1 </tspan>
<tspan x="10" y="202">  │ │ └─┬ micromatch@2.3.11 </tspan>
<tspan x="10" y="218">  │ │   ├─┬ arr-diff@2.0.0 </tspan>
<tspan x="10" y="234">  │ │   │ └── arr-flatten@1.0.1 </tspan>
<tspan x="10" y="250">  │ │   ├── array-unique@0.2.1 </tspan>
<tspan x="10" y="266">  │ │   ├─┬ braces@1.8.5 </tspan>
<tspan x="10" y="282">  │ │   │ ├─┬ expand-range@1.8.2 </tspan>
<tspan x="10" y="298">  │ │   │ │ └─┬ fill-range@2.2.3 </tspan>
<tspan x="10" y="314">  │ │   │ │   ├── is-number@2.1.0 </tspan>
<tspan x="10" y="330">  │ │   │ │   ├── isobject@2.1.0 </tspan>
<tspan x="10" y="346">  │ │   │ │   ├── randomatic@1.1.6 </tspan>
<tspan x="10" y="362">  │ │   │ │   └── repeat-string@1.6.1 </tspan>
<tspan x="10" y="378">  │ │   │ ├── preserve@0.2.0 </tspan>
<tspan x="10" y="394">  │ │   │ └── repeat-element@1.1.2 </tspan>
<tspan x="10" y="410">  │ │   ├─┬ expand-brackets@0.1.5 </tspan>
<tspan x="10" y="426">  │ │   │ └── is-posix-bracket@0.1.1 </tspan>
<tspan x="10" y="442">  │ │   ├── extglob@0.3.2 </tspan>
<tspan x="10" y="458">  │ │   ├── filename-regex@2.0.0 </tspan>
<tspan x="10" y="474">  │ │   ├─┬ kind-of@3.1.0 </tspan>
<tspan x="10" y="490">  │ │   │ └── is-buffer@1.1.5 </tspan>
<tspan x="10" y="506">  │ │   ├─┬ normalize-path@2.1.1 </tspan>
<tspan x="10" y="522">  │ │   │ └── remove-trailing-separator@1.0.1 </tspan>
<tspan x="10" y="538">  │ │   ├─┬ object.omit@2.0.1 </tspan>
<tspan x="10" y="554">  │ │   │ ├─┬ for-own@0.1.5 </tspan>
<tspan x="10" y="570">  │ │   │ │ └── for-in@1.0.2 </tspan>
<tspan x="10" y="586">  │ │   │ └── is-extendable@0.1.1 </tspan>
<tspan x="10" y="602">  │ │   ├─┬ parse-glob@3.0.4 </tspan>
<tspan x="10" y="618">  │ │   │ ├── glob-base@0.3.0 </tspan>
<tspan x="10" y="634">  │ │   │ └── is-dotfile@1.0.2 </tspan>
<tspan x="10" y="650">  │ │   └─┬ regex-cache@0.4.3 </tspan>
<tspan x="10" y="666">  │ │     ├── is-equal-shallow@0.1.3 </tspan>
<tspan x="10" y="682">  │ │     └── is-primitive@2.0.0 </tspan>
<tspan x="10" y="698">  │ ├── async-each@1.0.1 </tspan>
<tspan x="10" y="714">  │ ├── glob-parent@2.0.0 </tspan>
<tspan x="10" y="730">  │ ├── inherits@2.0.3 </tspan>
<tspan x="10" y="746">  │ ├─┬ is-binary-path@1.0.1 </tspan>
<tspan x="10" y="762">  │ │ └── binary-extensions@1.8.0 </tspan>
<tspan x="10" y="778">  │ ├─┬ is-glob@2.0.1 </tspan>
<tspan x="10" y="794">  │ │ └── is-extglob@1.0.0 </tspan>
<tspan x="10" y="810">  │ ├── path-is-absolute@1.0.1 </tspan>
<tspan x="10" y="826">  │ └─┬ readdirp@2.1.0 </tspan>
<tspan x="10" y="842">  │   ├── graceful-fs@4.1.11 </tspan>
<tspan x="10" y="858">  │   ├─┬ minimatch@3.0.3 </tspan>
<tspan x="10" y="874">  │   │ └─┬ brace-expansion@1.1.6 </tspan>
<tspan x="10" y="890">  │   │   ├── balanced-match@0.4.2 </tspan>
<tspan x="10" y="906">  │   │   └── concat-map@0.0.1 </tspan>
<tspan x="10" y="922">  │   ├─┬ readable-stream@2.2.6 </tspan>
<tspan x="10" y="938">  │   │ ├── buffer-shims@1.0.0 </tspan>
<tspan x="10" y="954">  │   │ ├── core-util-is@1.0.2 </tspan>
<tspan x="10" y="970">  │   │ ├── isarray@1.0.0 </tspan>
<tspan x="10" y="986">  │   │ ├── process-nextick-args@1.0.7 </tspan>
<tspan x="10" y="1002">  │   │ ├── string_decoder@0.10.31 </tspan>
<tspan x="10" y="1018">  │   │ └── util-deprecate@1.0.2 </tspan>
<tspan x="10" y="1034">  │   └── set-immediate-shim@1.0.1 </tspan>
<tspan x="10" y="1050">  ├── connect-sse@1.2.0 </tspan>
<tspan x="10" y="1066">  ├── exit-hook@1.1.1 </tspan>
<tspan x="10" y="1082">  ├─┬ express@4.15.2 </tspan>
<tspan x="10" y="1098">  │ ├─┬ accepts@1.3.3 </tspan>
<tspan x="10" y="1114">  │ │ ├─┬ mime-types@2.1.15 </tspan>
<tspan x="10" y="1130">  │ │ │ └── mime-db@1.27.0 </tspan>
<tspan x="10" y="1146">  │ │ └── negotiator@0.6.1 </tspan>
<tspan x="10" y="1162">  │ ├── array-flatten@1.1.1 </tspan>
<tspan x="10" y="1178">  │ ├── content-disposition@0.5.2 </tspan>
<tspan x="10" y="1194">  │ ├── content-type@1.0.2 </tspan>
<tspan x="10" y="1210">  │ ├── cookie@0.3.1 </tspan>
<tspan x="10" y="1226">  │ ├── cookie-signature@1.0.6 </tspan>
<tspan x="10" y="1242">  │ ├─┬ debug@2.6.1 </tspan>
<tspan x="10" y="1258">  │ │ └── ms@0.7.2 </tspan>
<tspan x="10" y="1274">  │ ├── depd@1.1.0 </tspan>
<tspan x="10" y="1290">  │ ├── encodeurl@1.0.1 </tspan>
<tspan x="10" y="1306">  │ ├── escape-html@1.0.3 </tspan>
<tspan x="10" y="1322">  │ ├── etag@1.8.0 </tspan>
<tspan x="10" y="1338">  │ ├─┬ finalhandler@1.0.1 </tspan>
<tspan x="10" y="1354">  │ │ ├── debug@2.6.3 </tspan>
<tspan x="10" y="1370">  │ │ └── unpipe@1.0.0 </tspan>
<tspan x="10" y="1386">  │ ├── fresh@0.5.0 </tspan>
<tspan x="10" y="1402">  │ ├── merge-descriptors@1.0.1 </tspan>
<tspan x="10" y="1418">  │ ├── methods@1.1.2 </tspan>
<tspan x="10" y="1434">  │ ├─┬ on-finished@2.3.0 </tspan>
<tspan x="10" y="1450">  │ │ └── ee-first@1.1.1 </tspan>
<tspan x="10" y="1466">  │ ├── parseurl@1.3.1 </tspan>
<tspan x="10" y="1482">  │ ├── path-to-regexp@0.1.7 </tspan>
<tspan x="10" y="1498">  │ ├─┬ proxy-addr@1.1.4 </tspan>
<tspan x="10" y="1514">  │ │ ├── forwarded@0.1.0 </tspan>
<tspan x="10" y="1530">  │ │ └── ipaddr.js@1.3.0 </tspan>
<tspan x="10" y="1546">  │ ├── qs@6.4.0 </tspan>
<tspan x="10" y="1562">  │ ├── range-parser@1.2.0 </tspan>
<tspan x="10" y="1578">  │ ├─┬ send@0.15.1 </tspan>
<tspan x="10" y="1594">  │ │ ├── destroy@1.0.4 </tspan>
<tspan x="10" y="1610">  │ │ ├── http-errors@1.6.1 </tspan>
<tspan x="10" y="1626">  │ │ └── mime@1.3.4 </tspan>
<tspan x="10" y="1642">  │ ├── serve-static@1.12.1 </tspan>
<tspan x="10" y="1658">  │ ├── setprototypeof@1.0.3 </tspan>
<tspan x="10" y="1674">  │ ├── statuses@1.3.1 </tspan>
<tspan x="10" y="1690">  │ ├─┬ type-is@1.6.15 </tspan>
<tspan x="10" y="1706">  │ │ └── media-typer@0.3.0 </tspan>
<tspan x="10" y="1722">  │ ├── utils-merge@1.0.0 </tspan>
<tspan x="10" y="1738">  │ └── vary@1.1.1 </tspan>
<tspan x="10" y="1754">  ├─┬ get-port@2.1.0 </tspan>
<tspan x="10" y="1770">  │ └─┬ pinkie-promise@2.0.1 </tspan>
<tspan x="10" y="1786">  │   └── pinkie@2.0.4 </tspan>
<tspan x="10" y="1802">  ├─┬ http-proxy@1.16.2 </tspan>
<tspan x="10" y="1818">  │ ├── eventemitter3@1.2.0 </tspan>
<tspan x="10" y="1834">  │ └── requires-port@1.0.0 </tspan>
<tspan x="10" y="1850">  ├── matcher@0.1.2 </tspan>
<tspan x="10" y="1866">  ├─┬ mkdirp@0.5.1 </tspan>
<tspan x="10" y="1882">  │ └── minimist@0.0.8 </tspan>
<tspan x="10" y="1898">  ├─┬ once@1.4.0 </tspan>
<tspan x="10" y="1914">  │ └── wrappy@1.0.2 </tspan>
<tspan x="10" y="1930">  ├─┬ respawn@2.5.0 </tspan>
<tspan x="10" y="1946">  │ ├─┬ ps-tree@0.0.3 </tspan>
<tspan x="10" y="1962">  │ │ └─┬ event-stream@0.5.3 </tspan>
<tspan x="10" y="1978">  │ │   └─┬ optimist@0.2.8 </tspan>
<tspan x="10" y="1994">  │ │     └── wordwrap@0.0.3 </tspan>
<tspan x="10" y="2010">  │ └─┬ xtend@2.1.2 </tspan>
<tspan x="10" y="2026">  │   └── object-keys@0.4.0 </tspan>
<tspan x="10" y="2042">  ├── server-ready@0.3.1 </tspan>
<tspan x="10" y="2058">  ├─┬ strip-ansi@3.0.1 </tspan>
<tspan x="10" y="2074">  │ └── ansi-regex@2.1.1 </tspan>
<tspan x="10" y="2090">  ├── strip-indent@2.0.0 </tspan>
<tspan x="10" y="2106">  ├─┬ sudo-block@1.2.0 </tspan>
<tspan x="10" y="2122">  │ ├── is-docker@1.1.0 </tspan>
<tspan x="10" y="2138">  │ └── is-root@1.0.0 </tspan>
<tspan x="10" y="2154">  ├─┬ tildify@1.2.0 </tspan>
<tspan x="10" y="2170">  │ └── os-homedir@1.0.2 </tspan>
<tspan x="10" y="2186">  ├── unquote@1.1.0 </tspan>
<tspan x="10" y="2202">  ├── untildify@3.0.2 </tspan>
<tspan x="10" y="2218">  ├─┬ update-notifier@1.0.3 </tspan>
<tspan x="10" y="2234">  │ ├─┬ boxen@0.6.0 </tspan>
<tspan x="10" y="2250">  │ │ ├── ansi-align@1.1.0 </tspan>
<tspan x="10" y="2266">  │ │ ├── camelcase@2.1.1 </tspan>
<tspan x="10" y="2282">  │ │ ├── cli-boxes@1.0.0 </tspan>
<tspan x="10" y="2298">  │ │ ├── filled-array@1.1.0 </tspan>
<tspan x="10" y="2314">  │ │ ├── object-assign@4.1.1 </tspan>
<tspan x="10" y="2330">  │ │ ├─┬ repeating@2.0.1 </tspan>
<tspan x="10" y="2346">  │ │ │ └── is-finite@1.0.2 </tspan>
<tspan x="10" y="2362">  │ │ └── widest-line@1.0.0 </tspan>
<tspan x="10" y="2378">  │ ├─┬ configstore@2.1.0 </tspan>
<tspan x="10" y="2394">  │ │ ├─┬ dot-prop@3.0.0 </tspan>
<tspan x="10" y="2410">  │ │ │ └── is-obj@1.0.1 </tspan>
<tspan x="10" y="2426">  │ │ ├── os-tmpdir@1.0.2 </tspan>
<tspan x="10" y="2442">  │ │ ├── osenv@0.1.4 </tspan>
<tspan x="10" y="2458">  │ │ ├── uuid@2.0.3 </tspan>
<tspan x="10" y="2474">  │ │ └─┬ write-file-atomic@1.3.1 </tspan>
<tspan x="10" y="2490">  │ │   ├── imurmurhash@0.1.4 </tspan>
<tspan x="10" y="2506">  │ │   └── slide@1.1.6 </tspan>
<tspan x="10" y="2522">  │ ├── is-npm@1.0.0 </tspan>
<tspan x="10" y="2538">  │ ├─┬ latest-version@2.0.0 </tspan>
<tspan x="10" y="2554">  │ │ └─┬ package-json@2.4.0 </tspan>
<tspan x="10" y="2570">  │ │   ├─┬ got@5.7.1 </tspan>
<tspan x="10" y="2586">  │ │   │ ├─┬ create-error-class@3.0.2 </tspan>
<tspan x="10" y="2602">  │ │   │ │ └── capture-stack-trace@1.0.0 </tspan>
<tspan x="10" y="2618">  │ │   │ ├── duplexer2@0.1.4 </tspan>
<tspan x="10" y="2634">  │ │   │ ├── is-redirect@1.0.0 </tspan>
<tspan x="10" y="2650">  │ │   │ ├── is-retry-allowed@1.1.0 </tspan>
<tspan x="10" y="2666">  │ │   │ ├── is-stream@1.1.0 </tspan>
<tspan x="10" y="2682">  │ │   │ ├── lowercase-keys@1.0.0 </tspan>
<tspan x="10" y="2698">  │ │   │ ├── node-status-codes@1.0.0 </tspan>
<tspan x="10" y="2714">  │ │   │ ├─┬ parse-json@2.2.0 </tspan>
<tspan x="10" y="2730">  │ │   │ │ └─┬ error-ex@1.3.1 </tspan>
<tspan x="10" y="2746">  │ │   │ │   └── is-arrayish@0.2.1 </tspan>
<tspan x="10" y="2762">  │ │   │ ├── read-all-stream@3.1.0 </tspan>
<tspan x="10" y="2778">  │ │   │ ├── timed-out@3.1.3 </tspan>
<tspan x="10" y="2794">  │ │   │ ├── unzip-response@1.0.2 </tspan>
<tspan x="10" y="2810">  │ │   │ └─┬ url-parse-lax@1.0.0 </tspan>
<tspan x="10" y="2826">  │ │   │   └── prepend-http@1.0.4 </tspan>
<tspan x="10" y="2842">  │ │   ├─┬ registry-auth-token@3.1.1 </tspan>
<tspan x="10" y="2858">  │ │   │ └─┬ rc@1.2.1 </tspan>
<tspan x="10" y="2874">  │ │   │   ├── deep-extend@0.4.1 </tspan>
<tspan x="10" y="2890">  │ │   │   ├── ini@1.3.4 </tspan>
<tspan x="10" y="2906">  │ │   │   ├── minimist@1.2.0 </tspan>
<tspan x="10" y="2922">  │ │   │   └── strip-json-comments@2.0.1 </tspan>
<tspan x="10" y="2938">  │ │   └── registry-url@3.1.0 </tspan>
<tspan x="10" y="2954">  │ ├── lazy-req@1.1.0 </tspan>
<tspan x="10" y="2970">  │ ├─┬ semver-diff@2.1.0 </tspan>
<tspan x="10" y="2986">  │ │ └── semver@5.3.0 </tspan>
<tspan x="10" y="3002">  │ └── xdg-basedir@2.0.0 </tspan>
<tspan x="10" y="3018">  ├─┬ user-startup@0.2.2 </tspan>
<tspan x="10" y="3034">  │ └── untildify@2.1.0 </tspan>
<tspan x="10" y="3050">  ├── vhost@3.0.2 </tspan>
<tspan x="10" y="3066">  └─┬ yargs@6.6.0 </tspan>
<tspan x="10" y="3082">    ├── camelcase@3.0.0 </tspan>
<tspan x="10" y="3098">    ├─┬ cliui@3.2.0 </tspan>
<tspan x="10" y="3114">    │ └── wrap-ansi@2.1.0 </tspan>
<tspan x="10" y="3130">    ├── decamelize@1.2.0 </tspan>
<tspan x="10" y="3146">    ├── get-caller-file@1.0.2 </tspan>
<tspan x="10" y="3162">    ├─┬ os-locale@1.4.0 </tspan>
<tspan x="10" y="3178">    │ └─┬ lcid@1.0.0 </tspan>
<tspan x="10" y="3194">    │   └── invert-kv@1.0.0 </tspan>
<tspan x="10" y="3210">    ├─┬ read-pkg-up@1.0.1 </tspan>
<tspan x="10" y="3226">    │ ├─┬ find-up@1.1.2 </tspan>
<tspan x="10" y="3242">    │ │ └── path-exists@2.1.0 </tspan>
<tspan x="10" y="3258">    │ └─┬ read-pkg@1.1.0 </tspan>
<tspan x="10" y="3274">    │   ├─┬ load-json-file@1.1.0 </tspan>
<tspan x="10" y="3290">    │   │ ├── pify@2.3.0 </tspan>
<tspan x="10" y="3306">    │   │ └─┬ strip-bom@2.0.0 </tspan>
<tspan x="10" y="3322">    │   │   └── is-utf8@0.2.1 </tspan>
<tspan x="10" y="3338">    │   ├─┬ normalize-package-data@2.3.6 </tspan>
<tspan x="10" y="3354">    │   │ ├── hosted-git-info@2.4.1 </tspan>
<tspan x="10" y="3370">    │   │ ├─┬ is-builtin-module@1.0.0 </tspan>
<tspan x="10" y="3386">    │   │ │ └── builtin-modules@1.1.1 </tspan>
<tspan x="10" y="3402">    │   │ └─┬ validate-npm-package-license@3.0.1 </tspan>
<tspan x="10" y="3418">    │   │   ├─┬ spdx-correct@1.0.2 </tspan>
<tspan x="10" y="3434">    │   │   │ └── spdx-license-ids@1.2.2 </tspan>
<tspan x="10" y="3450">    │   │   └── spdx-expression-parse@1.0.4 </tspan>
<tspan x="10" y="3466">    │   └── path-type@1.1.0 </tspan>
<tspan x="10" y="3482">    ├── require-directory@2.1.1 </tspan>
<tspan x="10" y="3498">    ├── require-main-filename@1.0.1 </tspan>
<tspan x="10" y="3514">    ├── set-blocking@2.0.0 </tspan>
<tspan x="10" y="3530">    ├─┬ string-width@1.0.2 </tspan>
<tspan x="10" y="3546">    │ ├── code-point-at@1.1.0 </tspan>
<tspan x="10" y="3562">    │ └─┬ is-fullwidth-code-point@1.0.0 </tspan>
<tspan x="10" y="3578">    │   └── number-is-nan@1.0.1 </tspan>
<tspan x="10" y="3594">    ├── which-module@1.0.0 </tspan>
<tspan x="10" y="3610">    ├── y18n@3.2.1 </tspan>
<tspan x="10" y="3626">    └─┬ yargs-parser@4.2.1 </tspan>
<tspan x="10" y="3642">      └── camelcase@3.0.0</tspan>
</text>
</svg>
